<?xml version="1.0" encoding="UTF-8"?>
<svg id="Calque_1" xmlns="http://www.w3.org/2000/svg" version="1.1" viewBox="0 0 424 138">
  <!-- Generator: Adobe Illustrator 29.1.0, SVG Export Plug-In . SVG Version: 2.1.0 Build 142)  -->
  <defs>
    <style>
      .st0 {
        fill: #fff;
      }
    </style>
  </defs>
  <g>
    <path d="M109.4,81.3h13.4l-11,55.4h-11.6l-20.9-34.6-6.9,34.6h-13.4l11-55.4h11.6l20.8,34.7,7-34.7Z"/>
    <path d="M181.5,105.7c0,16.6-13.1,32.1-31.6,32.1s-27.7-10.3-27.7-25.8,12.9-31.8,31.4-31.8,27.8,10.1,27.8,25.5ZM150.5,126.3c10.9,0,17.6-9.7,17.6-19.8s-5.9-14.7-14.9-14.7-17.5,9.3-17.5,19.5,5.8,15,14.8,15Z"/>
    <path d="M180.9,136.7l11.1-55.4h24.2c11,0,18.5,8.5,18.5,18.7s-6.8,17.7-16.1,20.7l11.9,16h-17.3l-10.4-14.6h-5.5l-2.9,14.6h-13.5ZM203,92.9l-3.5,17.6h10.8c5.7,0,10.9-3.9,10.9-9.8s-3.4-7.8-7.7-7.8h-10.5Z"/>
    <path d="M297.6,81.3h9l-11.1,55.4h-13l5-25.1-22.7,25.9-12.1-27.2-5.3,26.4h-13l11.1-55.4h9l14.2,35.7,28.8-35.7Z"/>
    <path d="M341.4,128.9h-23l-4.4,7.8h-14.8l34.7-55.4h10.1l12.7,55.4h-13.9l-1.3-7.8ZM324.6,117.9h15.1l-3.3-20.9-11.8,20.9Z"/>
    <path d="M410.6,81.3h13.4l-11,55.4h-11.6l-20.9-34.6-6.9,34.6h-13.4l11-55.4h11.6l20.8,34.7,7-34.7Z"/>
  </g>
  <g>
    <path d="M56.3,14.2c14.4,2.7,29.1,9.4,37.9,20,6.4,7.8,9.1,16.4,9.1,24.8s0,3-.2,4.4l-.3,2.2c6.6-.9,10.8-1.2,13.6-1.2s4.8.5,5.3,1c.5.7.4.8-.4.9l-15,1.9-4.3.7-.2,1.1c-2.2,7.2-5.9,13.8-11.3,19.2-6.8,7.1-16.4,11.8-25.6,13.8-2.2.6-4.7,1-7.2,1.1-1,.1-2.1.1-3.1.1-5.2,0-10.2-1.1-13.6-3.7-1.1-.7-2.3-1.7-3-2.6-1.8-2.3-2.3-4.7-1.6-7.2,1.2-3.2,4.5-6.8,13-11.4v-4.2c.2-14.7,1.3-37.3,2.2-50.9.1-1.9.3-5,.6-8.2-2.3-.2-4.5-.3-6.8-.3s-3.8.1-5.6.2C20.8,17.6,3.9,27.1,3.9,41.8s.3,4,.9,6.2c3.2,10.7,16.8,21.7,30.2,20.9,1.2-.1,2.5-.5,3.4-.8,3.8-1.1,2.4,2.4-3.3,2.9-14.7,1-30-10.4-34.2-24C.3,44.7,0,42.5,0,40.5,0,25,17.4,14.7,37.5,13.2c1.7-.2,3.6-.2,5.5-.2,3.1,0,6.3.2,9.4.6.5-5.9,1.1-11.9,1.5-12.9.2-.6,1.2-.7,2.4-.1,1.1.5,1.8,1.3,1.5,1.8-.7,1.7-1.2,6.8-1.6,11.8ZM49.6,84.1c-5.3,3.1-8.5,6-9.1,9-.8,2.7.3,4.7,2.3,6.3,1.5.9,4,1.8,7.5,2.1,1.3.1,3.2.1,4.9-.1,2.3-.1,4.5-.5,7.2-1,8.7-2.1,18-6.6,24.9-13.4,4.6-4.7,8.2-10.5,10.2-16.5l.2-.5-2.5.3c-19.4,3.6-33,7.8-42,12v4c0,7.4.2,8.3.4,8.5v.5c.3.5-.2.9-.8.9-3.2-.2-2.8-8.7-3.1-12ZM56.2,16.8c-.3,3.8-.4,7.2-.5,8.9-1,15.2-2.4,36.8-2.4,51.4s.1.6,0,.9c9.9-4.2,24.6-8.2,44.7-11.6l.6-.2h.1c.5-2.6.8-5.2.8-7.9,0-8.2-2.7-16.6-8.5-24.1-8.4-9.5-21.5-15.4-34.9-17.4Z"/>
    <path d="M134.7,65.5c.4,1.3.5,2.9.2,4.4-.9,5.1-5.1,7.7-9.8,7.4-3.8-.2-6.4-3.4-6.9-6.3-.7-4.3,1.9-9.2,4.3-10.1.2,0,.3-.1.5-.1.4-1.4,1.1-2.6,3.2-2.5,2.8.4,5,1.7,6.6,3.6,2.6.3,5.2.4,7.6.4,4.8,0,8.8-.4,9.7-.4,3-.1,2.3,1.2-.2,2.1-2.3.8-8.9,1.7-15.2,1.4ZM121.8,70.7c.5,3,1.6,4.1,3.6,4,4.5-.2,6.8-6.1,5.1-9.7-2.4-.4-4.3-1-5.7-1.9l-.2.2c-1.3,1-3.3,4.6-2.8,7.5Z"/>
    <path d="M152.2,72.6v2.4c0,1.3-3.6.4-3.7-1.2-.1-.8-.2-1.8,0-3.1l1-10.3c0-.7,1-.8,2.1-.4.8.5,1.7,1.4,1.6,2.1l-.2,3.5c3.5-2.6,10.9-6.3,16.6-5.6,1.9.2,3.8,2.1,3.8,3.6s-.3,2.6-.4,4.2c0,1.2.9,2.2,2.4,2.6,2.2.6,5.5.8,9.7.8,12.1,0,29.7-2.1,34.4-3.4.7-.2,4.5-1.1,5-.3.8.8-3.5,2.5-4.2,2.7-7.3,2.4-22.3,4.8-33.6,4.8s-6.8-.3-9.3-.8c-1.7-.5-9-2.1-8.2-11.5-7.6.8-15,5.7-16.9,10.1Z"/>
  </g>
  <polygon class="st0" points="85.5 87.7 88.7 93 91.1 91.1 87.5 85.8 85.5 87.7"/>
  <polygon class="st0" points="66.7 98.1 65.5 104.4 63.4 104.8 64.5 98.2 66.7 98.1"/>
</svg>