<?xml version="1.0" encoding="UTF-8"?>
<svg id="Calque_1" xmlns="http://www.w3.org/2000/svg" version="1.1" viewBox="0 0 155 42">
  <!-- Generator: Adobe Illustrator 29.2.1, SVG Export Plug-In . SVG Version: 2.1.0 Build 116)  -->
  <path d="M0,42S3.2,16.9,25.3,0c0,0-1.5,22.3,7.5,29.5-5.4,6.9-9.3,12-9.3,12,0,0-6.4-5-9.1-16.7C10.6,30.6,0,42,0,42ZM48.1.7c7.2,0,11.1,7.6,8,16.3-2.6,7.3-2.9,14,2.7,16.7,5.6,2.7,9.9-2.7,9.9-2.7,0,0-2.5,9-12.7,9s-23.4-11.1-19.3-28.8c2-7.6,6.7-10.4,11.4-10.4h0ZM75.8,24.9h-3.9v-9.7h3.9c.4,0,.7,0,1.2.1.4,0,.8.2,1.1.4.3.2.6.5.8.8.2.3.3.7.3,1.3s-.2,1-.5,1.4c-.2.3-.5.5-.9.7.2,0,.3.1.4.2.2.1.5.3.7.5.2.2.3.4.4.7.1.3.2.5.2.9,0,.5-.1,1-.3,1.3-.2.4-.5.7-.9.9-.4.2-.7.4-1.2.5-.4.1-.9.2-1.4.2h0ZM74.4,22.8h1.2c.2,0,.4,0,.5,0,.2,0,.3,0,.5-.2.1,0,.2-.2.3-.3,0-.1.1-.3.1-.5,0-.3-.1-.6-.4-.7-.3-.1-.7-.2-1.1-.2h-1.2v2h0ZM74.4,19h1.1c.4,0,.7,0,.9-.2.2-.1.3-.4.3-.7,0-.2-.1-.5-.3-.6-.2-.1-.6-.2-1-.2h-1v1.7ZM85.7,25.1c-.7,0-1.5-.1-2.1-.4-.6-.2-1.2-.6-1.7-1-.5-.4-.8-1-1.1-1.6-.3-.6-.4-1.3-.4-2.1s.1-1.5.4-2.1c.3-.6.6-1.1,1.1-1.6.5-.4,1-.8,1.7-1,.6-.2,1.4-.4,2.1-.4s1.5.1,2.1.4c.6.2,1.2.6,1.7,1,.5.4.8,1,1.1,1.6.3.6.4,1.3.4,2.1s-.1,1.5-.4,2.1c-.3.6-.6,1.2-1.1,1.6-.5.5-1.1.8-1.7,1-.6.2-1.4.4-2.1.4ZM85.7,17.3c-.4,0-.7,0-1.1.2-.3.1-.6.3-.8.6-.2.2-.4.5-.5.9-.1.3-.2.7-.2,1.1s0,.8.2,1.1.3.6.5.9c.2.2.5.4.8.6.6.3,1.5.3,2.1,0,.3-.1.6-.3.8-.6.2-.2.4-.5.5-.9.1-.3.2-.7.2-1.1s0-.8-.2-1.1c-.1-.3-.3-.6-.5-.9-.2-.2-.5-.4-.8-.6-.3-.2-.6-.2-1-.2ZM100.4,24.9h-3l-2.1-3.7h-.6v3.7h-2.5v-9.7h3.7c.5,0,.9,0,1.4.1.4,0,.9.2,1.2.5.4.2.6.5.9.9.2.4.3.9.3,1.4s-.2,1.2-.6,1.7c-.3.4-.8.7-1.4.9l2.5,4.1ZM94.8,19.3h1c.2,0,.4,0,.6,0,.3,0,.6-.2.9-.5,0-.2.1-.3.1-.5,0-.2,0-.4-.1-.5,0-.1-.2-.2-.3-.3-.2,0-.3-.1-.5-.1-.2,0-.4,0-.5,0h-1.1v2h0ZM104.9,24.9h-3.7v-9.7h3.6c.7,0,1.4,0,2,.2.7.2,1.3.4,1.8.8.5.4.9.9,1.3,1.5.3.6.5,1.4.5,2.3s-.2,1.6-.5,2.2c-.3.6-.7,1.1-1.2,1.5-.5.4-1.1.7-1.7.9-.7.2-1.3.3-2,.3ZM103.7,22.7h1c.4,0,.8,0,1.2-.1.4,0,.7-.2,1-.4s.5-.5.7-.8c.2-.3.2-.8.2-1.3s0-.9-.2-1.3c-.2-.3-.4-.6-.7-.8-.3-.2-.6-.3-.9-.4-.4,0-.7-.1-1.1-.1h-1v5.2s0,0,0,0ZM118.5,24.9h-6.9v-9.7h6.7v2.2h-4.2v1.5h3.9v2.1h-3.9v1.7h4.4s0,2.2,0,2.2ZM129.1,24.9h-2.8l-.7-1.8h-3.5l-.7,1.8h-2.8l4.1-9.7h2.4c0,0,4,9.7,4,9.7ZM122.7,21h2l-1-2.7-1,2.7ZM133.4,25.1c-.6,0-1.2-.1-1.7-.3-.5-.2-.9-.4-1.3-.8-.4-.4-.6-.8-.8-1.2-.2-.5-.3-1-.3-1.6v-6h2.5v5.8c0,.2,0,.5,0,.7,0,.2.2.4.3.6.1.2.3.3.5.4.2.1.5.1.8.1s.6,0,.8-.1c.2-.1.4-.2.5-.4.1-.2.2-.4.3-.6,0-.2,0-.5,0-.7v-5.8h2.6v6c0,.6-.1,1.1-.3,1.6-.2.5-.5.9-.9,1.2-.4.3-.8.6-1.3.8-.5.2-1.1.3-1.7.3h0ZM148.1,24.9h-3.1l-2-3.2-1.9,3.2h-3.1l3.4-5.1-3.2-4.6h3.1l1.7,2.8,1.7-2.8h3l-3.1,4.6s3.5,5.1,3.5,5.1ZM83.1,38.7h-2.5v-6.2c0,0-2.2,6.2-2.2,6.2h-1.8l-2.2-6.2v6.2c0,0-2.4,0-2.4,0v-9.7h3.5l2.1,5.9,2-5.9h3.5v9.7h0ZM89.6,38.9c-.8,0-1.5-.1-2.1-.4-.6-.2-1.2-.6-1.7-1-.5-.4-.8-1-1.1-1.6-.3-.6-.4-1.3-.4-2.1s.1-1.5.4-2.1c.3-.6.6-1.1,1.1-1.6.5-.4,1-.8,1.7-1,.6-.2,1.4-.4,2.1-.4s1.5.1,2.1.4c.6.2,1.2.6,1.7,1,.5.4.9,1,1.1,1.6.3.6.4,1.3.4,2.1s-.1,1.5-.4,2.1c-.3.6-.6,1.2-1.1,1.6-.5.5-1.1.8-1.7,1-.6.2-1.3.4-2.1.4ZM89.6,31c-.4,0-.8,0-1.1.2-.3.1-.6.3-.8.6-.2.2-.4.5-.5.9-.1.3-.2.7-.2,1.1s0,.8.2,1.1c.1.3.3.6.5.9.2.2.5.4.8.6.6.3,1.5.3,2.1,0,.3-.1.6-.3.8-.6.2-.2.4-.5.5-.9.1-.4.2-.7.2-1.1,0-.4,0-.8-.2-1.1-.1-.3-.3-.6-.5-.9-.2-.2-.5-.4-.8-.6-.3-.1-.7-.2-1-.2ZM105.1,38.7h-2.8l-3.7-5.9v5.9c0,0-2.4,0-2.4,0v-9.7h2.8l3.7,5.9v-5.9c0,0,2.4,0,2.4,0v9.7h0ZM111.1,38.7h-2.6v-7.5h-2.7v-2.2h7.9v2.2h-2.7s0,7.5,0,7.5ZM123.1,38.7h-2.8l-.7-1.8h-3.5l-.7,1.8h-2.8l4.1-9.7h2.4c0,0,4,9.7,4,9.7ZM116.8,34.7h2l-1-2.7-1,2.7ZM126.2,29h-2.6v9.7h2.6v-9.7ZM132.8,38.9c-.8,0-1.5-.1-2.1-.4-.6-.2-1.2-.6-1.7-1-.5-.4-.8-1-1.1-1.6-.3-.6-.4-1.3-.4-2.1s.1-1.5.4-2.1c.3-.6.6-1.2,1.1-1.6.5-.4,1.1-.8,1.7-1,.6-.2,1.3-.4,2.1-.4s1.5.1,2.1.4c.7.2,1.2.5,1.6.9h0c0,0-1.6,1.9-1.6,1.9h0c-.2-.4-.5-.6-.8-.7-.4-.2-.8-.3-1.2-.2-.4,0-.7,0-1.1.2-.3.1-.6.3-.9.6-.2.2-.4.5-.6.9-.1.3-.2.7-.2,1.1s0,.8.2,1.2c.1.4.3.7.5.9.2.2.5.4.9.6s.7.2,1.2.2.5,0,.7,0c.2,0,.4,0,.6-.2v-1.5h-1.8v-2.1h4.2v5.2h0c-.5.3-1,.5-1.7.6-.7.1-1.4.2-2.1.2h0ZM147.1,38.7h-2.8l-3.7-5.9v5.9c0,0-2.4,0-2.4,0v-9.7h2.8l3.7,5.9v-5.9c0,0,2.4,0,2.4,0v9.7h0ZM155.7,38.7h-6.9v-9.7h6.6v2.2h-4.2v1.5h3.9v2.1h-3.9v1.7h4.4v2.2h0ZM80.3,11.3c-.6,0-1.2-.1-1.7-.3-.5-.2-.9-.4-1.3-.8-.4-.4-.6-.8-.8-1.2-.2-.5-.3-1-.3-1.6V1.5h2.5v5.8c0,.2,0,.5,0,.7,0,.2.2.4.3.6.1.2.3.3.5.4.2.1.5.1.8.1s.6,0,.8-.1c.2-.1.4-.2.5-.4.1-.2.2-.4.3-.6,0-.2,0-.5,0-.7V1.5h2.6v6c0,.6-.1,1.1-.3,1.6-.2.5-.5.9-.9,1.2-.4.3-.8.6-1.3.8-.4.2-1,.3-1.6.3ZM90.6,11.1h-2.6V3.6h-2.7V1.4h7.9v2.2h-2.7s0,7.5,0,7.5ZM74.7,1.4h-2.6s0,9.7,0,9.7h2.6s0-9.7,0-9.7h0Z"/>
</svg>